<svg xmlns="http://www.w3.org/2000/svg" viewBox="0 0 107.52 28.2"><defs><style>.cls-1{fill:#fff;}</style></defs><title>Asset 1</title><g id="Layer_2" data-name="Layer 2"><g id="Layer_1-2" data-name="Layer 1"><g id="LieferandoDE"><g id="LieferandoDE_Full_Colour" data-name="LieferandoDE Full Colour"><path id="House" class="cls-1" d="M13.12.3a1.5,1.5,0,0,1,1.8,0c1.4.9,2.7,1.8,4,2.8,0,0,.3.2.4-.2a4.13,4.13,0,0,1,.1-1.5.75.75,0,0,1,.7-.5s1.5.1,2.5.2a1,1,0,0,1,.8.9s.6,4.2.8,5.7a4.69,4.69,0,0,0,1.2,2.1,42,42,0,0,1,2.5,3.8s.5,1.1-.6,1.2c0,0-2.1.2-2.3.3a.56.56,0,0,0-.5.6h0s-.1,7.3-.6,10.9c0,0-.1,1.4-.9,1.4,0,0-2.1-.1-2.6-.1,0,0-.2,0-.2-.3,0,0,1.1-11.4.4-17.2a1,1,0,0,0-.6-.9s-.5-.2-1,.5a18.09,18.09,0,0,0-3.4,10.3,6.8,6.8,0,0,0,.2,2.3s.2.3,1.1.4l1.1.2s.2,0,.2.3c0,0-.3,3.4-.3,4a.6.6,0,0,1-.1.4.58.58,0,0,1-.4.1h-5.5a.49.49,0,0,1-.3-.1c-.1-.2-.3-4.3-.3-4.9,0-.1.1-.2.2-.3a3,3,0,0,0,1.4-2.2,7.85,7.85,0,0,0,0-1.9s.2-6.4.2-7.5c0,0,.1-.3-.4-.4a.38.38,0,0,0-.5.3h0s-.3,4.3-.3,5.9c0,0,.1,1.1-.6,1.1,0,0-.7.1-.8-.8,0,0,.1-4.1.2-6.2a.43.43,0,0,0-.4-.4c-.2-.1-.5.1-.5.4h0s-.3,4-.3,6c0,0,.1,1-.7,1,0,0-.7.1-.7-.8,0,0,.2-5.7.2-6.1a.46.46,0,0,0-.4-.5h-.1c-.2,0-.5.1-.5.4v.1S7,17.9,7,19.9a3.63,3.63,0,0,0,1.5,2.9.37.37,0,0,1,.2.3s.2,3.6.3,4.8c0,0,.1.3-.2.3L5,28s-.6.1-.8-.7a95,95,0,0,1-.7-11.5.56.56,0,0,0-.5-.6s-1.9-.2-2.4-.3a.83.83,0,0,1-.6-1c0-.1.1-.1.1-.2A41.22,41.22,0,0,1,13.12.3Z"/></g><g id="PysznePL-2"><path class="cls-1" d="M90.62,14.7a4.51,4.51,0,0,0-1.4-1,5.85,5.85,0,0,0-1.9-.4,5.22,5.22,0,0,0-2.1.4,5.85,5.85,0,0,0-1.7,1,3.55,3.55,0,0,0-1.1,1.6,6.36,6.36,0,0,0,0,4.7,9.06,9.06,0,0,0,1.1,1.6,4.25,4.25,0,0,0,1.7,1,7.79,7.79,0,0,0,2.1.4,5.93,5.93,0,0,0,2.3-.5,4.92,4.92,0,0,0,1.5-1,.64.64,0,0,0,0-.6l-1.3-1h0l-.1-.1c-.2-.1-.4-.1-.5.1l-.6.6a2.66,2.66,0,0,1-1.2.3,3,3,0,0,1-1.5-.5,3.81,3.81,0,0,1-.8-1.7.22.22,0,0,1,.2-.2h6.3a.46.46,0,0,0,.4-.5v-.5a7.61,7.61,0,0,0-.3-2.1A11.07,11.07,0,0,0,90.62,14.7Zm-2,2.5h-3.4A.22.22,0,0,1,85,17c0-.2.1-.3.1-.5a1.84,1.84,0,0,1,1-1,2.92,2.92,0,0,1,.9-.2,1.9,1.9,0,0,1,1.3.5,1.61,1.61,0,0,1,.5,1.1C88.82,17.1,88.72,17.2,88.62,17.2Z"/><path class="cls-1" d="M60.82,18.2a6.12,6.12,0,0,0-1.2-.5l-1.2-.3-.9-.3a.66.66,0,0,1-.4-.5.6.6,0,0,1,.3-.6,1.85,1.85,0,0,1,.7-.2,2.39,2.39,0,0,1,1.4.5.64.64,0,0,0,.6,0l1.2-1.3a.64.64,0,0,0,0-.6,5.67,5.67,0,0,0-1.3-.8,5.82,5.82,0,0,0-1.9-.3,7.72,7.72,0,0,0-1.5.2,3.1,3.1,0,0,0-1.3.6,2.84,2.84,0,0,0-.9,1,2.7,2.7,0,0,0-.3,1.5,2.82,2.82,0,0,0,.4,1.5,2,2,0,0,0,.9.9,6.12,6.12,0,0,0,1.2.5l1.2.3.9.3a.65.65,0,0,1,0,1.2,1.41,1.41,0,0,1-.9.1,2.27,2.27,0,0,1-1.8-.8.64.64,0,0,0-.6,0l-1.2,1.6c-.1.2-.1.5.1.6h0a6.38,6.38,0,0,0,1.4.8,6.93,6.93,0,0,0,2,.3,7.57,7.57,0,0,0,1.5-.1,5.78,5.78,0,0,0,1.4-.5,2.41,2.41,0,0,0,1-1,2.93,2.93,0,0,0,.4-1.6,2.82,2.82,0,0,0-.4-1.5A1.37,1.37,0,0,0,60.82,18.2Z"/><path class="cls-1" d="M42.12,11.4a7.74,7.74,0,0,0-1.6-.7,11,11,0,0,0-1.8-.2h-4a.43.43,0,0,0-.4.4V23.3a.43.43,0,0,0,.4.4h2.1a.43.43,0,0,0,.4-.4V18.8a.22.22,0,0,1,.2-.2h1.4a11,11,0,0,0,1.8-.2,3.29,3.29,0,0,0,1.6-.7,3.25,3.25,0,0,0,1-1.3,4.33,4.33,0,0,0,.4-1.9,4.06,4.06,0,0,0-.4-1.9A4.26,4.26,0,0,0,42.12,11.4Zm-1.7,3.9a1.21,1.21,0,0,1-.5.5c-.2.1-.3.2-.5.2s-.5.1-.8.1h-1.2a.22.22,0,0,1-.2-.2V13.2a.22.22,0,0,1,.2-.2H39a1.85,1.85,0,0,1,.7.2,2.65,2.65,0,0,1,.6.5,1.08,1.08,0,0,1,.2.8A1.06,1.06,0,0,1,40.42,15.3Z"/><path class="cls-1" d="M70.72,21.4h-4.5a.1.1,0,0,1-.1-.1v-.1h.1l4.3-4.1.2-.2a.91.91,0,0,0,.3-.7v-2h0c0-.2-.2-.5-.4-.5h-7.4a.66.66,0,0,0-.5.4v1.5a.46.46,0,0,0,.5.4h4.1c.1,0,.1.1.1.2v.1L63.62,20h0l-.5.5-.1.1c-.2.1-.2.3-.3.6v2.2a.43.43,0,0,0,.4.4h7.7a.54.54,0,0,0,.5-.5h0V21.8h0A.68.68,0,0,0,70.72,21.4Z"/><path class="cls-1" d="M54.42,13.9h0c-.1-.2-.2-.3-.4-.3h-1.8a1,1,0,0,0-.8.5h0v.1h0v.3h0l-1.6,5.2h0v.1c0,.1-.1.2-.2.1s-.2,0-.2-.1l-1.9-5.3h0v-.1l-.1-.4a.79.79,0,0,0-.8-.5h-2a.32.32,0,0,0-.3.3v.1h0v.2l3.8,9.3V24h0l-.2.2a4.88,4.88,0,0,1-.3.7c-.1.2-.2.3-.3.5a1.68,1.68,0,0,1-1.3.4h-1.3a.43.43,0,0,0-.4.4v1.6a.43.43,0,0,0,.4.4h1.7a5,5,0,0,0,1.7-.2,2.38,2.38,0,0,0,1.1-.6,3.59,3.59,0,0,0,.7-1c.2-.4.4-.8.6-1.3l4.1-11C54.42,14.1,54.42,14,54.42,13.9Z"/><path class="cls-1" d="M80.42,14.7a2.66,2.66,0,0,0-1.1-1,3.81,3.81,0,0,0-1.8-.3,3.4,3.4,0,0,0-1,.1,2,2,0,0,0-.8.4,2.65,2.65,0,0,0-.6.5c0,.1-.1.1-.2.2h-.1c-.1,0-.1-.1-.2-.1v-.4a.4.4,0,0,0-.5-.4h-1.9c-.2,0-.5.2-.5.4v9.3a.46.46,0,0,0,.5.4h2.1a.66.66,0,0,0,.5-.4V17.6a2.35,2.35,0,0,1,.2-.8,2.65,2.65,0,0,1,.5-.6,2.92,2.92,0,0,1,.9-.2,1.34,1.34,0,0,1,1.3.8,2.35,2.35,0,0,1,.2.8v5.8a.46.46,0,0,0,.5.4h2.1a.66.66,0,0,0,.5-.4V18a10.87,10.87,0,0,0-.1-1.8A3.33,3.33,0,0,0,80.42,14.7Z"/><path class="cls-1" d="M107,9.5h-.7a.54.54,0,0,0-.5.5V23.4c0,.2.2.4.5.5h.7a.54.54,0,0,0,.5-.5V10C107.42,9.7,107.22,9.5,107,9.5Z"/><path class="cls-1" d="M93.12,21.7a1.14,1.14,0,0,0-.8.3,1.21,1.21,0,0,0,0,1.6,1.12,1.12,0,0,0,1.6,0h0a1.21,1.21,0,0,0,0-1.6A1.14,1.14,0,0,0,93.12,21.7Z"/><path class="cls-1" d="M103.22,14.9a3.59,3.59,0,0,0-1.4-1,4,4,0,0,0-3.4,0,8.34,8.34,0,0,0-1.2.8v-.8h0a.46.46,0,0,0-.5-.4H96a.43.43,0,0,0-.4.4V27.6a.43.43,0,0,0,.4.4h.8a.43.43,0,0,0,.4-.4h0V22.8a2.4,2.4,0,0,0,1.2.7,4,4,0,0,0,3.4,0,4.51,4.51,0,0,0,1.4-1,4.62,4.62,0,0,0,.9-1.5,8.33,8.33,0,0,0,.3-2.2,10.07,10.07,0,0,0-.3-2.5A8,8,0,0,0,103.22,14.9Zm-.4,5.6a2.38,2.38,0,0,1-.6,1.1,2,2,0,0,1-.9.7,2.55,2.55,0,0,1-2.4,0,3.11,3.11,0,0,1-.9-.7,2.38,2.38,0,0,1-.6-1.1,8.75,8.75,0,0,1-.2-1.6,11,11,0,0,1,.2-1.8A2.38,2.38,0,0,1,98,16a2,2,0,0,1,.9-.7,2.55,2.55,0,0,1,2.4,0,3.11,3.11,0,0,1,.9.7,2.38,2.38,0,0,1,.6,1.1,11,11,0,0,1,.2,1.8A4.14,4.14,0,0,1,102.82,20.5Z"/></g></g></g></g></svg>